<svg width="22" height="22" viewBox="0 0 22 22" fill="none" xmlns="http://www.w3.org/2000/svg">
<path d="M14.841 1.83337H7.15933C3.82266 1.83337 1.8335 3.82254 1.8335 7.15921V14.8317C1.8335 18.1775 3.82266 20.1667 7.15933 20.1667H14.8318C18.1685 20.1667 20.1577 18.1775 20.1577 14.8409V7.15921C20.1668 3.82254 18.1777 1.83337 14.841 1.83337ZM8.351 15.4917C8.351 15.7484 8.14933 15.95 7.89266 15.95H5.33516C5.0785 15.95 4.87683 15.7484 4.87683 15.4917V11.2567C4.87683 10.6792 5.34433 10.2117 5.92183 10.2117H7.89266C8.14933 10.2117 8.351 10.4134 8.351 10.67V15.4917ZM12.7327 15.4917C12.7327 15.7484 12.531 15.95 12.2743 15.95H9.71683C9.46016 15.95 9.2585 15.7484 9.2585 15.4917V7.09504C9.2585 6.51754 9.726 6.05004 10.3035 6.05004H11.6968C12.2743 6.05004 12.7418 6.51754 12.7418 7.09504V15.4917H12.7327ZM17.1235 15.4917C17.1235 15.7484 16.9218 15.95 16.6652 15.95H14.1077C13.851 15.95 13.6493 15.7484 13.6493 15.4917V12.2375C13.6493 11.9809 13.851 11.7792 14.1077 11.7792H16.0785C16.656 11.7792 17.1235 12.2467 17.1235 12.8242V15.4917Z" fill="white"/>
</svg>
