<svg width="535" height="535" viewBox="0 0 535 535" fill="none" xmlns="http://www.w3.org/2000/svg">
<g clip-path="url(#clip0_27_17)">
<path d="M149.04 139.8H191.2V216.6H101.04L125.36 155.88C129.2 146.2 138.56 139.8 149.04 139.8ZM229.6 216.6V139.8H294.56C302.32 139.8 309.68 143.32 314.56 149.4L368.32 216.6H229.6ZM434.56 217.4L354.56 117.4C340 99.16 317.92 88.6 294.56 88.6H149.04C117.6 88.6 89.36 107.72 77.76 136.84L44.48 220.12C25.44 227.64 12 246.12 12 267.8V357.4C12 371.56 23.44 383 37.6 383H64.24C70.32 419.32 101.92 447 140 447C178.08 447 209.68 419.32 215.76 383H320.32C326.4 419.32 358 447 396.08 447C434.16 447 465.76 419.32 471.84 383H498.48C512.64 383 524.08 371.56 524.08 357.4V319C524.08 266.84 485.04 223.8 434.64 217.4H434.56ZM359.76 357.4C361.39 352.581 363.961 348.133 367.324 344.316C370.687 340.499 374.775 337.388 379.35 335.164C383.926 332.941 388.897 331.648 393.977 331.362C399.056 331.076 404.141 331.802 408.938 333.498C413.734 335.194 418.145 337.826 421.916 341.241C425.686 344.656 428.741 348.787 430.901 353.392C433.062 357.998 434.286 362.987 434.502 368.07C434.718 373.153 433.922 378.228 432.16 383C430.53 387.819 427.959 392.267 424.596 396.084C421.233 399.901 417.145 403.012 412.57 405.236C407.994 407.459 403.023 408.752 397.943 409.038C392.864 409.324 387.779 408.598 382.982 406.902C378.186 405.206 373.775 402.574 370.004 399.159C366.234 395.744 363.18 391.613 361.019 387.008C358.858 382.402 357.634 377.413 357.418 372.33C357.202 367.247 357.998 362.172 359.76 357.4ZM140 331.8C150.184 331.8 159.952 335.846 167.153 343.047C174.354 350.249 178.4 360.016 178.4 370.2C178.4 380.384 174.354 390.152 167.153 397.353C159.952 404.554 150.184 408.6 140 408.6C129.816 408.6 120.049 404.554 112.847 397.353C105.646 390.152 101.6 380.384 101.6 370.2C101.6 360.016 105.646 350.249 112.847 343.047C120.049 335.846 129.816 331.8 140 331.8Z" fill="#75787B"/>
</g>
<defs>
<clipPath id="clip0_27_17">
<rect width="512" height="409.6" fill="white" transform="translate(12 63)"/>
</clipPath>
</defs>
</svg>
