<svg width="794" height="379" viewBox="0 0 794 379" fill="none" xmlns="http://www.w3.org/2000/svg">
<path d="M18.0882 130.539L68.4121 58.5C86.2401 29.9031 170.039 19 194.33 13.5L398.72 0C439.984 0 479.551 16.7484 508.479 46.4766L578.527 118.519L745.566 157.527C773.458 164.052 793.185 189.111 793.185 217.967V284.136C793.185 298.389 781.712 309.977 767.563 309.977H656.942C653.636 348.52 621.918 378.872 582.84 378.872C543.761 378.872 512.045 348.52 508.737 309.977H252.643C249.335 348.52 217.619 378.872 178.541 378.872C139.462 378.872 107.775 348.52 104.438 309.977H25.6498C11.4732 309.977 -6.71074e-05 298.389 -6.71074e-05 284.136V193.808C0.00148208 171.419 6.26945 149.508 18.0882 130.539Z" fill="#CA4F00"/>
<path d="M495.059 111.795H333.059L292.156 21.023C292.156 21.023 386.656 6.52307 446.559 26.7948C478.733 37.6829 507.559 88.7948 507.559 88.7948L495.059 111.795Z" fill="#E5E1E6"/>
<path d="M120.742 115H316.656L275.353 23C275.353 23 99.6562 39.0874 99.6562 67.2404C99.6562 95.3934 120.742 115 120.742 115Z" fill="#E5E1E6"/>
</svg>
