<svg width="25" height="25" viewBox="0 0 25 25" fill="none" xmlns="http://www.w3.org/2000/svg">
<g clip-path="url(#clip0_10_67)">
<path d="M12.5 25C15.8152 25 18.9946 23.683 21.3388 21.3388C23.683 18.9946 25 15.8152 25 12.5C25 9.18479 23.683 6.00537 21.3388 3.66117C18.9946 1.31696 15.8152 0 12.5 0C9.18479 0 6.00537 1.31696 3.66117 3.66117C1.31696 6.00537 0 9.18479 0 12.5C0 15.8152 1.31696 18.9946 3.66117 21.3388C6.00537 23.683 9.18479 25 12.5 25ZM11.3281 16.7969V13.6719H8.20312C7.55371 13.6719 7.03125 13.1494 7.03125 12.5C7.03125 11.8506 7.55371 11.3281 8.20312 11.3281H11.3281V8.20312C11.3281 7.55371 11.8506 7.03125 12.5 7.03125C13.1494 7.03125 13.6719 7.55371 13.6719 8.20312V11.3281H16.7969C17.4463 11.3281 17.9688 11.8506 17.9688 12.5C17.9688 13.1494 17.4463 13.6719 16.7969 13.6719H13.6719V16.7969C13.6719 17.4463 13.1494 17.9688 12.5 17.9688C11.8506 17.9688 11.3281 17.4463 11.3281 16.7969Z" fill="#861F41"/>
</g>
<defs>
<clipPath id="clip0_10_67">
<rect width="25" height="25" fill="white"/>
</clipPath>
</defs>
</svg>
