<svg width="30" height="30" viewBox="0 0 30 30" fill="none" xmlns="http://www.w3.org/2000/svg">
<path d="M12.0708 21.25H8.74969V17.5M7.62794 18.6217L21.7634 4.48626C22.7397 3.50995 24.3226 3.50995 25.299 4.48626C26.2753 5.46258 26.2753 7.04549 25.299 8.0218L10.955 22.3657C10.2849 23.0359 9.9499 23.3709 9.579 23.6589C9.24956 23.9147 8.89934 24.1427 8.532 24.3404C8.11844 24.5629 7.67644 24.7335 6.79244 25.0749L3.75 26.2497L4.7289 23.3126C5.06299 22.3104 5.23004 21.8091 5.46238 21.3411C5.66871 20.9255 5.91318 20.53 6.19261 20.1595C6.50728 19.7424 6.88083 19.3689 7.62794 18.6217Z" stroke="white" stroke-width="2" stroke-linecap="round" stroke-linejoin="round"/>
</svg>
