<svg width="535" height="535" viewBox="0 0 535 535" fill="none" xmlns="http://www.w3.org/2000/svg">
<path d="M140.876 388.308L78.6534 373.019C69.7119 370.822 63.4257 362.804 63.4257 353.596V307.453C63.4257 302.156 59.1312 297.861 53.8338 297.861C48.5363 297.861 44.2418 302.156 44.2418 307.453V360.733C44.2418 369.636 37.0242 376.854 28.1209 376.854C19.2176 376.854 12 369.636 12 360.733V198.234C12 189.331 19.2176 182.113 28.1209 182.113C37.0242 182.113 44.2418 189.331 44.2418 198.234V251.997C44.2418 257.295 48.5363 261.589 53.8338 261.589C59.1312 261.589 63.4257 257.295 63.4257 251.997V204.77C63.4257 195.843 69.3412 187.997 77.9233 185.541L107.397 177.107C112.096 175.763 116.14 172.744 118.765 168.621L135.072 143.009C138.744 137.242 145.107 133.751 151.943 133.751H220.685C225.537 133.751 229.471 129.817 229.471 124.965C229.471 120.112 225.537 116.179 220.685 116.179H159.587C151.529 116.179 144.997 109.647 144.997 101.589C144.997 93.5319 151.529 87 159.587 87H338.329C345.785 87 351.829 93.0442 351.829 100.5C351.829 107.798 346.029 113.774 338.735 113.994L274.876 115.918C270.058 116.063 266.227 120.012 266.227 124.832C266.227 129.758 270.22 133.751 275.145 133.751H339.049C346.841 133.751 353.924 138.276 357.198 145.347L373.704 180.995C376.978 188.066 384.06 192.592 391.853 192.592H396.796C407.842 192.592 416.796 201.546 416.796 212.592V224.995C416.796 230.782 421.487 235.474 427.275 235.474C433.062 235.474 437.753 230.782 437.753 224.995V217.094C437.753 206.574 446.565 198.201 457.071 198.738L491.379 200.491C499.093 200.885 505.891 205.686 508.841 212.825L522.483 245.829C523.485 248.252 524 250.848 524 253.469V370.455C524 374.617 522.701 378.675 520.285 382.065L494.354 418.439C490.601 423.703 484.534 426.829 478.069 426.829H454.358C445.187 426.829 437.753 419.395 437.753 410.224V404.098C437.753 398.311 433.062 393.62 427.275 393.62C421.487 393.62 416.796 398.311 416.796 404.098V424.281C416.796 432.281 412.028 439.512 404.674 442.663L393.486 447.458C390.997 448.525 388.316 449.076 385.608 449.076H200.577C194.125 449.076 188.069 445.963 184.314 440.717L152.367 396.088C149.588 392.207 145.512 389.447 140.876 388.308Z" fill="#75787B"/>
</svg>
