<svg width="800" height="800" viewBox="0 0 800 800" fill="none" xmlns="http://www.w3.org/2000/svg">
<g clip-path="url(#clip0_2006_1559)">
<path fill-rule="evenodd" clip-rule="evenodd" d="M773.689 151.644C782.026 143.476 788.649 133.726 793.171 122.965C797.693 112.204 800.022 100.65 800.022 88.9778C800.022 77.3058 797.693 65.7512 793.171 54.9906C788.649 44.23 782.026 34.4798 773.689 26.3111C765.524 17.9753 755.778 11.3529 745.021 6.83179C734.264 2.31072 722.713 -0.0180412 711.044 -0.0180412C699.376 -0.0180412 687.825 2.31072 677.068 6.83179C666.311 11.3529 656.565 17.9753 648.4 26.3111L635.511 39.2L609.289 12.9778C604.007 7.74583 597.507 3.90921 590.374 1.81317C583.241 -0.282867 575.698 -0.572556 568.425 0.970172C561.153 2.5129 554.377 5.83964 548.709 10.651C543.042 15.4624 538.659 21.6075 535.956 28.5334L520.4 12.9778C512.031 4.60874 500.68 -0.0929413 488.844 -0.0929413C477.009 -0.0929413 465.658 4.60874 457.289 12.9778C448.92 21.3468 444.218 32.6977 444.218 44.5334C444.218 56.369 448.92 67.7199 457.289 76.0889L472.845 91.6445C467.015 93.9533 461.721 97.4317 457.287 101.865C452.854 106.299 449.376 111.593 447.067 117.422L431.511 101.867C423.142 93.4976 411.791 88.7959 399.956 88.7959C388.12 88.7959 376.769 93.4976 368.4 101.867C360.031 110.236 355.329 121.587 355.329 133.422C355.329 145.258 360.031 156.609 368.4 164.978L439.067 235.556L304.845 369.333C304.4 369.778 303.956 370.667 303.511 371.111C277.663 360.762 250.065 355.48 222.222 355.556C178.271 355.556 135.307 368.589 98.7623 393.007C62.218 417.425 33.7352 452.131 16.9158 492.737C0.0962853 533.343 -4.30446 578.024 4.27004 621.131C12.8445 664.238 34.0091 703.834 65.0875 734.913C96.1658 765.991 135.762 787.156 178.869 795.73C221.976 804.305 266.657 799.904 307.263 783.084C347.869 766.265 382.575 737.782 406.993 701.238C431.411 664.694 444.445 621.729 444.445 577.778C444.525 549.92 439.244 522.306 428.889 496.444C429.333 496 430.222 495.556 430.667 495.111L773.689 151.644ZM222.222 666.667C198.648 666.667 176.038 657.302 159.368 640.632C142.698 623.962 133.333 601.353 133.333 577.778C133.333 554.203 142.698 531.594 159.368 514.924C176.038 498.254 198.648 488.889 222.222 488.889C245.797 488.889 268.406 498.254 285.076 514.924C301.746 531.594 311.111 554.203 311.111 577.778C311.111 601.353 301.746 623.962 285.076 640.632C268.406 657.302 245.797 666.667 222.222 666.667Z" fill="black"/>
</g>
<defs>
<clipPath id="clip0_2006_1559">
<rect width="800" height="800" fill="white"/>
</clipPath>
</defs>
</svg>
