<svg width="157" height="172" viewBox="0 0 157 172" fill="none" xmlns="http://www.w3.org/2000/svg">
<path d="M143.763 60.413L143.764 60.4007C144.729 48.9253 148.185 38.4094 154.269 28.7629L154.92 27.7296L154.04 26.8823L130.192 3.91947L129.226 2.98971L128.194 3.84514C120.901 9.89062 112.617 13.2268 103.223 13.8157L103.205 13.8168L103.187 13.8184C94.554 14.5698 86.3922 12.9943 78.6969 9.07804L78.0368 8.74213L77.3688 9.06194C69.4313 12.862 61.284 14.4472 52.7936 13.8175C44.0016 13.061 36.0873 10.0634 28.9843 4.74814L27.965 3.9854L27.0467 4.86711L3.1383 27.8228L2.2831 28.644L2.88449 29.6657C8.65434 39.4685 11.8528 49.6975 12.479 60.3629L12.4791 60.3658C12.7643 65.0703 11.368 71.757 8.04204 80.6439L8.03707 80.6571L8.03235 80.6705C6.27206 85.6592 4.93614 90.0075 4.01537 93.6583L4.0122 93.6708L4.00924 93.6835C3.16725 97.2833 2.62729 100.264 2.4413 102.552L2.43714 102.603L2.43649 102.654C2.31194 112.512 5.19178 121.439 11.0837 129.358L11.0986 129.378L11.1142 129.397C15.5954 135.019 22.8876 140.495 32.6135 146.969C32.641 147.014 32.6656 147.051 32.6847 147.075C32.7361 147.131 32.8257 147.216 32.8621 147.247C32.8877 147.267 32.9328 147.301 32.9521 147.315C32.967 147.326 32.9936 147.343 33.0054 147.351C33.0095 147.354 33.0151 147.357 33.0208 147.361C33.0283 147.365 33.036 147.37 33.0405 147.373L33.0654 147.388L33.0841 147.398C33.0946 147.404 33.1036 147.409 33.1103 147.412L33.1282 147.422L33.152 147.434C33.1638 147.44 33.1743 147.445 33.1818 147.448L33.2049 147.459L33.251 147.481C33.2829 147.496 33.3217 147.513 33.364 147.533C33.3979 147.548 33.435 147.565 33.4742 147.582C33.5331 147.609 33.5964 147.638 33.66 147.666C33.6883 147.679 33.7167 147.691 33.7449 147.704C34.371 148.074 35.5369 148.809 37.1205 149.806C38.1485 150.453 39.3526 151.212 40.6992 152.053C44.268 154.283 48.7722 157.056 53.4465 159.762C58.1158 162.466 62.9795 165.117 67.2634 167.097C69.4049 168.087 71.425 168.92 73.2187 169.508C74.9876 170.088 76.6419 170.466 78.0165 170.466C79.2249 170.466 80.7621 170.085 82.4186 169.526C84.1139 168.954 86.08 168.145 88.2001 167.183C92.4426 165.258 97.3951 162.679 102.198 160.05C109.458 156.077 116.5 151.917 120.234 149.711C120.741 149.412 121.187 149.148 121.565 148.926C121.622 148.923 121.674 148.918 121.717 148.912C121.812 148.9 121.899 148.882 121.97 148.866C122.112 148.834 122.259 148.79 122.395 148.746C122.534 148.701 122.682 148.65 122.831 148.595C123.127 148.485 123.446 148.357 123.737 148.231C124.022 148.108 124.309 147.976 124.529 147.859C124.586 147.828 124.646 147.795 124.705 147.76C124.76 147.727 124.834 147.681 124.91 147.625C124.949 147.596 125.002 147.554 125.06 147.5C125.09 147.473 125.126 147.438 125.165 147.395C125.203 147.353 125.252 147.294 125.301 147.22C125.35 147.149 125.413 147.042 125.466 146.902C125.518 146.763 125.57 146.562 125.562 146.318C125.562 146.308 125.562 146.298 125.561 146.288C134.108 140.262 140.538 134.736 144.815 129.695L144.839 129.667L144.861 129.638C150.964 121.692 153.941 112.714 153.806 102.66L153.805 102.61L153.801 102.56C153.432 97.9833 151.451 90.8547 147.972 81.3629C144.682 72.1647 143.316 65.2493 143.763 60.413ZM34.3423 146.316L33.6545 147.508C33.6387 147.488 33.6206 147.463 33.6013 147.435L34.3423 146.316Z" fill="#EA4335" stroke="white" stroke-width="3"/>
<path d="M141.572 129.287C137.145 134.496 130.155 140.399 120.497 147.01C120.39 147.052 120.271 147.101 120.16 147.147C120.106 147.169 120.052 147.192 120.001 147.214C119.989 147.219 119.977 147.223 119.965 147.227C119.87 147.262 119.781 147.295 119.707 147.322L119.622 147.354C119.596 147.364 119.571 147.373 119.549 147.382L119.514 147.395C119.503 147.4 119.491 147.405 119.478 147.41L119.455 147.42C119.446 147.423 119.436 147.428 119.423 147.433L119.401 147.444C119.393 147.447 119.383 147.452 119.371 147.458C119.359 147.464 119.343 147.472 119.324 147.482L119.29 147.501C119.279 147.507 119.256 147.521 119.243 147.529C119.227 147.538 119.193 147.561 119.174 147.574C119.149 147.591 119.094 147.633 119.064 147.658C119.022 147.694 118.925 147.79 118.872 147.851C118.84 147.894 118.793 147.971 118.744 148.061C118.415 148.255 118.046 148.473 117.642 148.711C113.871 150.939 107.021 154.985 99.8251 158.924C95.0472 161.539 90.1703 164.076 86.0279 165.956C83.9556 166.896 82.0904 167.661 80.5272 168.188C78.9253 168.729 77.7767 168.971 77.0839 168.971C76.1859 168.971 74.8898 168.71 73.2208 168.162C71.5766 167.623 69.6711 166.841 67.5894 165.879C63.427 163.955 58.6541 161.356 54.017 158.671C49.385 155.989 44.9131 153.237 41.3564 151.014C40.0803 150.217 38.9132 149.482 37.8968 148.842C36.6541 148.059 35.6369 147.419 34.9215 146.979C34.8781 146.937 34.8177 146.881 34.7904 146.859C34.7785 146.849 34.7617 146.836 34.7459 146.824C34.7317 146.814 34.7184 146.804 34.7101 146.798C34.6965 146.788 34.6717 146.772 34.6606 146.764C34.6516 146.759 34.6349 146.748 34.6272 146.743L34.6031 146.729L34.5848 146.718C34.5744 146.713 34.5655 146.708 34.5587 146.704L34.5406 146.694L34.5161 146.682C34.5038 146.675 34.4926 146.67 34.4843 146.666L34.458 146.653L34.4308 146.64L34.3652 146.609L34.2796 146.57C34.2398 146.551 34.1938 146.53 34.141 146.506C23.997 139.787 16.816 134.404 12.543 129.052C7.06598 121.683 4.3975 113.422 4.50301 104.249C4.67499 102.188 5.17379 99.3963 5.99482 95.8844C6.88639 92.3516 8.18982 88.103 9.92409 83.187C13.2878 74.1965 14.8646 67.0341 14.5411 61.6907C14.3828 58.9933 14.3462 57.0491 14.325 55.4927C14.3228 55.3314 14.3208 55.1734 14.3188 55.0185C14.3018 53.6945 14.2876 52.593 14.1951 51.5261C14.0153 49.4531 13.5435 47.5409 12.3276 44.1317L41.1156 45.0068L41.1384 45.0075H41.1612C45.2139 45.0075 49.5644 44.9199 53.8964 44.8327C62.4746 44.6601 70.98 44.4889 76.9556 45.002L76.9641 45.0027L76.9727 45.0034C79.1488 45.1651 80.235 45.2418 80.8649 45.2637C81.5144 45.2864 81.7702 45.2514 82.0986 45.2064C82.1345 45.2015 82.1713 45.1965 82.2096 45.1914C82.8217 45.1099 84.3691 44.9441 92.4286 45.0071C100.941 45.0737 104.699 45.0539 108.886 45.0319C111.153 45.0199 113.546 45.0073 116.887 45.0074C122.258 45.0073 122.842 45.0073 123.808 45.0073C124.772 45.0074 126.117 45.0074 132.987 45.0073L143.62 45.0072C143.596 45.0875 143.572 45.1667 143.549 45.2449C142.584 48.4882 142.141 49.9777 141.882 51.6236C141.695 52.8088 141.599 54.1163 141.439 56.2998C141.34 57.6456 141.217 59.3244 141.033 61.5124C140.521 67.0707 142.594 74.4178 145.885 83.6163L145.889 83.6273C149.326 93.0058 150.821 99.874 151.164 104.051C151.274 113.283 147.325 121.786 141.572 129.287ZM33.9641 146.557C33.9699 146.563 33.9756 146.568 33.9811 146.574L33.4097 147.821L33.9641 146.557Z" fill="#0D4DA6" stroke="white" stroke-width="3"/>
</svg>
