<svg width="40" height="58" viewBox="0 0 40 58" fill="none" xmlns="http://www.w3.org/2000/svg">
<g filter="url(#filter0_d_56_18)">
<path d="M24.9231 5.06377C24.9008 2.26396 22.6304 0.00166016 19.8227 0C17.0166 0.00166016 14.7445 2.26396 14.7223 5.06377C8.48975 5.96221 4 8.31797 4 9.93145V11.5641C4 13.5938 11.0838 15.2384 19.8227 15.2384C28.5615 15.2384 35.6453 13.5938 35.6453 11.5641V9.93145C35.6453 8.31797 31.1556 5.96221 24.9231 5.06377ZM19.8227 4.69385C19.2128 4.69385 18.6141 4.71299 18.0226 4.74248C18.0943 4.37969 18.2713 4.05928 18.5249 3.80342C18.8613 3.46777 19.3109 3.26689 19.8227 3.26533C20.336 3.26699 20.7841 3.46777 21.1221 3.80342C21.3755 4.05928 21.5525 4.37979 21.6235 4.74248C21.032 4.71299 20.4325 4.69385 19.8227 4.69385Z" fill="#861F41"/>
<path d="M19.8227 17.4155C11.0838 17.4155 4 15.7709 4 13.7412L5.80957 44.6253C5.80957 46.7291 11.154 50 19.8227 50C28.4913 50 33.8373 46.7291 33.8373 44.6253L35.6453 13.7412C35.6453 15.7709 28.5615 17.4155 19.8227 17.4155ZM10.3098 41.1799L9.65928 22.1238C10.0953 22.2234 10.5625 22.3072 11.0527 22.3917L11.7121 41.7157C11.2058 41.5465 10.7395 41.364 10.3098 41.1799ZM16.0313 42.6738L15.6788 22.9201C16.1316 22.9512 16.5908 22.9815 17.058 22.9967L17.4104 42.8189C16.9353 42.7807 16.4752 42.7344 16.0313 42.6738ZM23.6141 42.6738C23.17 42.7344 22.7021 42.7807 22.2277 42.8189L22.5801 22.9967C23.0473 22.9815 23.5072 22.9512 23.9593 22.9201L23.6141 42.6738ZM29.3355 41.1799C28.9066 41.3641 28.4396 41.5466 27.9341 41.7156L28.5927 22.3916C29.0829 22.3071 29.55 22.2162 29.9869 22.1237L29.3355 41.1799Z" fill="#861F41"/>
</g>
<defs>
<filter id="filter0_d_56_18" x="0" y="0" width="39.6453" height="58" filterUnits="userSpaceOnUse" color-interpolation-filters="sRGB">
<feFlood flood-opacity="0" result="BackgroundImageFix"/>
<feColorMatrix in="SourceAlpha" type="matrix" values="0 0 0 0 0 0 0 0 0 0 0 0 0 0 0 0 0 0 127 0" result="hardAlpha"/>
<feOffset dy="4"/>
<feGaussianBlur stdDeviation="2"/>
<feComposite in2="hardAlpha" operator="out"/>
<feColorMatrix type="matrix" values="0 0 0 0 0 0 0 0 0 0 0 0 0 0 0 0 0 0 0.25 0"/>
<feBlend mode="normal" in2="BackgroundImageFix" result="effect1_dropShadow_56_18"/>
<feBlend mode="normal" in="SourceGraphic" in2="effect1_dropShadow_56_18" result="shape"/>
</filter>
</defs>
</svg>
