<svg width="512" height="512" viewBox="0 0 512 512" fill="none" xmlns="http://www.w3.org/2000/svg">
<g clip-path="url(#clip0_27_24)">
<path d="M136 6C102.906 6 76 34.0273 76 68.5V443.5C76 477.973 102.906 506 136 506H376C409.094 506 436 477.973 436 443.5V162.25H316C299.406 162.25 286 148.285 286 131V6H136ZM316 6V131H436L316 6ZM278.5 404.438C278.5 417.426 268.469 427.875 256 427.875C243.531 427.875 233.5 417.426 233.5 404.438V304.73L204.438 335.004C195.625 344.184 181.375 344.184 172.656 335.004C163.937 325.824 163.844 310.98 172.656 301.898L240.156 231.586C248.969 222.406 263.219 222.406 271.938 231.586L339.438 301.898C348.25 311.078 348.25 325.922 339.438 335.004C330.625 344.086 316.375 344.184 307.656 335.004L278.594 304.73L278.5 404.438Z" fill="white"/>
</g>
<defs>
<clipPath id="clip0_27_24">
<rect width="360" height="500" fill="white" transform="translate(76 6)"/>
</clipPath>
</defs>
</svg>
